<mxfile host="app.diagrams.net" modified="2020-12-17T02:32:47.977Z" agent="5.0 (Windows NT 10.0; Win64; x64) AppleWebKit/537.36 (KHTML, like Gecko) Chrome/87.0.4280.88 Safari/537.36" etag="4DpbjcP3LQovwAI_uJY-" version="14.0.1" type="github">
  <diagram name="Page-1" id="c7558073-3199-34d8-9f00-42111426c3f3">
    <mxGraphModel dx="1422" dy="794" grid="0" gridSize="10" guides="1" tooltips="1" connect="1" arrows="1" fold="1" page="1" pageScale="1" pageWidth="826" pageHeight="1169" background="#ffffff" math="0" shadow="0">
      <root>
        <mxCell id="0" />
        <mxCell id="1" parent="0" />
        <mxCell id="2" value="&lt;p style=&quot;margin: 0px; margin-top: 4px; text-align: center; text-decoration: underline;&quot;&gt;&lt;strong&gt;Process 1&lt;br /&gt;&lt;/strong&gt;&lt;/p&gt;&lt;hr /&gt;&lt;p style=&quot;margin: 0px; margin-left: 8px;&quot;&gt;System Study&lt;/p&gt;&lt;p style=&quot;margin: 0px; margin-left: 8px;&quot;&gt;Preparation&lt;/p&gt;" style="verticalAlign=middle;align=center;overflow=fill;fontSize=12;fontFamily=Helvetica;html=1;rounded=1;fontStyle=1;strokeWidth=3;fillColor=#E6FFCC" parent="1" vertex="1">
          <mxGeometry x="178" y="2269" width="110" height="90" as="geometry" />
        </mxCell>
        <mxCell id="3" value="Engineering" style="whiteSpace=wrap;align=center;verticalAlign=middle;fontStyle=1;strokeWidth=3;fillColor=#FFFFCC" parent="1" vertex="1">
          <mxGeometry x="188" y="2159" width="90" height="60" as="geometry" />
        </mxCell>
        <mxCell id="5" value="ON-DEMAND SYSTEM DEVELOPMENT" style="shape=process;whiteSpace=wrap;align=center;verticalAlign=middle;size=0.0475;fontStyle=1;strokeWidth=3;fillColor=#FFCCCC" parent="1" vertex="1">
          <mxGeometry x="142.99999999999991" y="2424" width="400" height="50" as="geometry" />
        </mxCell>
        <mxCell id="6" value="&lt;p style=&quot;margin: 0px; margin-top: 4px; text-align: center; text-decoration: underline;&quot;&gt;&lt;strong&gt;Process 2&lt;br /&gt;&lt;/strong&gt;&lt;/p&gt;&lt;hr /&gt;&lt;p style=&quot;margin: 0px; margin-left: 8px;&quot;&gt;System Analysis&lt;/p&gt;" style="verticalAlign=middle;align=center;overflow=fill;fontSize=12;fontFamily=Helvetica;html=1;rounded=1;fontStyle=1;strokeWidth=3;fillColor=#E6FFCC" parent="1" vertex="1">
          <mxGeometry x="332" y="2179" width="110" height="90" as="geometry" />
        </mxCell>
        <mxCell id="7" value="&lt;p style=&quot;margin: 0px; margin-top: 4px; text-align: center; text-decoration: underline;&quot;&gt;&lt;strong&gt;&lt;strong&gt;Process&lt;/strong&gt; 3&lt;br /&gt;&lt;/strong&gt;&lt;/p&gt;&lt;hr /&gt;&lt;p style=&quot;margin: 0px; margin-left: 8px;&quot;&gt;List Possible&lt;/p&gt;&lt;p style=&quot;margin: 0px; margin-left: 8px;&quot;&gt;System Solutions&lt;/p&gt;" style="verticalAlign=middle;align=center;overflow=fill;fontSize=12;fontFamily=Helvetica;html=1;rounded=1;fontStyle=1;strokeWidth=3;fillColor=#E6FFCC" parent="1" vertex="1">
          <mxGeometry x="623" y="2404" width="110" height="90" as="geometry" />
        </mxCell>
        <mxCell id="8" value="&lt;p style=&quot;margin: 0px; margin-top: 4px; text-align: center; text-decoration: underline;&quot;&gt;&lt;strong&gt;&lt;strong&gt;Process&lt;/strong&gt; 4&lt;br /&gt;&lt;/strong&gt;&lt;/p&gt;&lt;hr /&gt;&lt;p style=&quot;margin: 0px; margin-left: 8px;&quot;&gt;Detail Chosen&lt;/p&gt;&lt;p style=&quot;margin: 0px; margin-left: 8px;&quot;&gt;Solution&lt;/p&gt;" style="verticalAlign=middle;align=center;overflow=fill;fontSize=12;fontFamily=Helvetica;html=1;rounded=1;fontStyle=1;strokeWidth=3;fillColor=#E6FFCC" parent="1" vertex="1">
          <mxGeometry x="502" y="2274" width="110" height="90" as="geometry" />
        </mxCell>
        <mxCell id="9" value="&lt;p style=&quot;margin: 0px; margin-top: 4px; text-align: center; text-decoration: underline;&quot;&gt;&lt;strong&gt;&lt;strong&gt;Process&lt;/strong&gt; 5&lt;br /&gt;&lt;/strong&gt;&lt;/p&gt;&lt;hr /&gt;&lt;p style=&quot;margin: 0px; margin-left: 8px;&quot;&gt;New System&lt;/p&gt;&lt;p style=&quot;margin: 0px; margin-left: 8px;&quot;&gt;Design&lt;/p&gt;" style="verticalAlign=middle;align=center;overflow=fill;fontSize=12;fontFamily=Helvetica;html=1;rounded=1;fontStyle=1;strokeWidth=3;fillColor=#E6FFCC" parent="1" vertex="1">
          <mxGeometry x="482" y="2543" width="110" height="90" as="geometry" />
        </mxCell>
        <mxCell id="10" value="&lt;p style=&quot;margin: 0px; margin-top: 4px; text-align: center; text-decoration: underline;&quot;&gt;&lt;strong&gt;&lt;strong&gt;Process&lt;/strong&gt; 6&lt;br /&gt;&lt;/strong&gt;&lt;/p&gt;&lt;hr /&gt;&lt;p style=&quot;margin: 0px; margin-left: 8px;&quot;&gt;New&lt;/p&gt;&lt;p style=&quot;margin: 0px; margin-left: 8px;&quot;&gt;System&lt;/p&gt;&lt;p style=&quot;margin: 0px; margin-left: 8px;&quot;&gt;Construction&lt;/p&gt;" style="verticalAlign=middle;align=center;overflow=fill;fontSize=12;fontFamily=Helvetica;html=1;rounded=1;fontStyle=1;strokeWidth=3;fillColor=#E6FFCC" parent="1" vertex="1">
          <mxGeometry x="130.49999999999991" y="2543" width="110" height="90" as="geometry" />
        </mxCell>
        <mxCell id="12" value="Management" style="whiteSpace=wrap;align=center;verticalAlign=middle;fontStyle=1;strokeWidth=3;fillColor=#FFFFCC" parent="1" vertex="1">
          <mxGeometry x="633" y="2093" width="90" height="60" as="geometry" />
        </mxCell>
        <mxCell id="13" value="Management" style="whiteSpace=wrap;align=center;verticalAlign=middle;fontStyle=1;strokeWidth=3;fillColor=#FFFFCC" parent="1" vertex="1">
          <mxGeometry x="295.50000000000006" y="2683" width="90" height="60" as="geometry" />
        </mxCell>
        <mxCell id="15" value="Vendors" style="whiteSpace=wrap;align=center;verticalAlign=middle;fontStyle=1;strokeWidth=3;fillColor=#FFFFCC" parent="1" vertex="1">
          <mxGeometry x="491.9999999999999" y="2683" width="90" height="60" as="geometry" />
        </mxCell>
        <mxCell id="36" value="" style="edgeStyle=none;noEdgeStyle=1;strokeColor=#990000;strokeWidth=2" parent="1" source="3" target="2" edge="1">
          <mxGeometry width="100" height="100" relative="1" as="geometry">
            <mxPoint x="-38" y="2283" as="sourcePoint" />
            <mxPoint x="62" y="2183" as="targetPoint" />
          </mxGeometry>
        </mxCell>
        <mxCell id="37" value="" style="edgeStyle=none;noEdgeStyle=1;strokeColor=#990000;strokeWidth=2" parent="1" target="2" edge="1">
          <mxGeometry width="100" height="100" relative="1" as="geometry">
            <mxPoint x="72" y="2314" as="sourcePoint" />
            <mxPoint x="322" y="2123" as="targetPoint" />
          </mxGeometry>
        </mxCell>
        <mxCell id="11" value="&lt;p style=&quot;margin: 0px; margin-top: 4px; text-align: center; text-decoration: underline;&quot;&gt;&lt;strong&gt;&lt;strong&gt;Process&lt;/strong&gt; 7&lt;br /&gt;&lt;/strong&gt;&lt;/p&gt;&lt;hr /&gt;&lt;p style=&quot;margin: 0px; margin-left: 8px;&quot;&gt;New System&lt;/p&gt;&lt;p style=&quot;margin: 0px; margin-left: 8px;&quot;&gt;Startup and&lt;/p&gt;&lt;p style=&quot;margin: 0px; margin-left: 8px;&quot;&gt;Testing&lt;/p&gt;" style="verticalAlign=middle;align=center;overflow=fill;fontSize=12;fontFamily=Helvetica;html=1;rounded=1;fontStyle=1;strokeWidth=3;fillColor=#E6FFCC" parent="1" vertex="1">
          <mxGeometry x="285.49999999999994" y="2543" width="110" height="90" as="geometry" />
        </mxCell>
        <mxCell id="51" value="" style="endArrow=none;noEdgeStyle=1;strokeColor=#990000;strokeWidth=2" parent="1" source="9" target="11" edge="1">
          <mxGeometry relative="1" as="geometry">
            <mxPoint x="147.00819672131135" y="2514" as="sourcePoint" />
            <mxPoint x="342.32786885245895" y="2683" as="targetPoint" />
          </mxGeometry>
        </mxCell>
        <mxCell id="52" value="Desired &#xa;functionality" style="text;spacingTop=-5;align=center" parent="1" vertex="1">
          <mxGeometry x="107" y="2284" width="30" height="20" as="geometry" />
        </mxCell>
        <mxCell id="53" value="Desired &#xa;functionality" style="text;spacingTop=-5;align=center" parent="1" vertex="1">
          <mxGeometry x="183" y="2229" width="30" height="20" as="geometry" />
        </mxCell>
        <mxCell id="54" value="Documentation&#xa;from similar projects" style="text;spacingTop=-5;align=center" parent="1" vertex="1">
          <mxGeometry x="128" y="2374" width="30" height="20" as="geometry" />
        </mxCell>
        <mxCell id="55" value="" style="edgeStyle=elbowEdgeStyle;elbow=horizontal;strokeColor=#990000;strokeWidth=2" parent="1" source="5" target="2" edge="1">
          <mxGeometry width="100" height="100" relative="1" as="geometry">
            <mxPoint x="-8" y="2563" as="sourcePoint" />
            <mxPoint x="92" y="2463" as="targetPoint" />
            <Array as="points">
              <mxPoint x="202" y="2403" />
            </Array>
          </mxGeometry>
        </mxCell>
        <mxCell id="56" value="" style="edgeStyle=elbowEdgeStyle;elbow=horizontal;strokeColor=#990000;strokeWidth=2" parent="1" source="2" target="5" edge="1">
          <mxGeometry width="100" height="100" relative="1" as="geometry">
            <mxPoint x="-8" y="2533" as="sourcePoint" />
            <mxPoint x="92" y="2433" as="targetPoint" />
            <Array as="points">
              <mxPoint x="222" y="2393" />
            </Array>
          </mxGeometry>
        </mxCell>
        <mxCell id="57" value="Elaborate&#xa;cost/benefit&#xa;ratio" style="text;spacingTop=-5;align=center" parent="1" vertex="1">
          <mxGeometry x="248" y="2374" width="30" height="20" as="geometry" />
        </mxCell>
        <mxCell id="58" value="" style="edgeStyle=elbowEdgeStyle;elbow=horizontal;strokeColor=#990000;strokeWidth=2" parent="1" source="5" target="6" edge="1">
          <mxGeometry width="100" height="100" relative="1" as="geometry">
            <mxPoint x="322" y="2403" as="sourcePoint" />
            <mxPoint x="422" y="2303" as="targetPoint" />
            <Array as="points">
              <mxPoint x="382" y="2343" />
            </Array>
          </mxGeometry>
        </mxCell>
        <mxCell id="59" value="" style="edgeStyle=elbowEdgeStyle;elbow=horizontal;strokeColor=#990000;strokeWidth=2" parent="1" source="6" target="5" edge="1">
          <mxGeometry width="100" height="100" relative="1" as="geometry">
            <mxPoint x="292" y="2403" as="sourcePoint" />
            <mxPoint x="392" y="2303" as="targetPoint" />
            <Array as="points">
              <mxPoint x="402" y="2353" />
            </Array>
          </mxGeometry>
        </mxCell>
        <mxCell id="60" value="Existing&#xa;documentation" style="text;spacingTop=-5;align=center" parent="1" vertex="1">
          <mxGeometry x="322.0000000000001" y="2314" width="30" height="20" as="geometry" />
        </mxCell>
        <mxCell id="61" value="Necessary&#xa;resources" style="text;spacingTop=-5;align=center" parent="1" vertex="1">
          <mxGeometry x="423.0000000000002" y="2284" width="30" height="20" as="geometry" />
        </mxCell>
        <mxCell id="62" value="Progress&#xa;reports" style="text;spacingTop=-5;align=center" parent="1" vertex="1">
          <mxGeometry x="487.0000000000001" y="2133" width="30" height="20" as="geometry" />
        </mxCell>
        <mxCell id="63" value="Progress&#xa;reports" style="text;spacingTop=-5;align=center" parent="1" vertex="1">
          <mxGeometry x="582" y="2179" width="30" height="20" as="geometry" />
        </mxCell>
        <mxCell id="64" value="Progress&#xa;reports" style="text;spacingTop=-5;align=center" parent="1" vertex="1">
          <mxGeometry x="693.0000000000001" y="2294" width="30" height="20" as="geometry" />
        </mxCell>
        <mxCell id="65" value="" style="edgeStyle=elbowEdgeStyle;elbow=horizontal;strokeColor=#990000;strokeWidth=2" parent="1" source="6" target="12" edge="1">
          <mxGeometry width="100" height="100" relative="1" as="geometry">
            <mxPoint x="202" y="2213" as="sourcePoint" />
            <mxPoint x="302" y="2113" as="targetPoint" />
            <Array as="points">
              <mxPoint x="387" y="2173" />
            </Array>
          </mxGeometry>
        </mxCell>
        <mxCell id="66" value="" style="edgeStyle=elbowEdgeStyle;elbow=vertical;entryX=0.25;entryY=1;strokeColor=#990000;strokeWidth=2" parent="1" source="8" target="12" edge="1">
          <mxGeometry width="100" height="100" relative="1" as="geometry">
            <mxPoint x="472" y="2283" as="sourcePoint" />
            <mxPoint x="572" y="2183" as="targetPoint" />
          </mxGeometry>
        </mxCell>
        <mxCell id="67" value="" style="edgeStyle=elbowEdgeStyle;elbow=horizontal;strokeColor=#990000;strokeWidth=2" parent="1" source="7" target="12" edge="1">
          <mxGeometry width="100" height="100" relative="1" as="geometry">
            <mxPoint x="602.0000000000002" y="2393" as="sourcePoint" />
            <mxPoint x="702.0000000000002" y="2293" as="targetPoint" />
          </mxGeometry>
        </mxCell>
        <mxCell id="68" value="" style="edgeStyle=elbowEdgeStyle;elbow=horizontal;strokeColor=#990000;strokeWidth=2" parent="1" source="8" target="5" edge="1">
          <mxGeometry width="100" height="100" relative="1" as="geometry">
            <mxPoint x="512" y="2413" as="sourcePoint" />
            <mxPoint x="452" y="2283" as="targetPoint" />
            <Array as="points">
              <mxPoint x="512" y="2393" />
            </Array>
          </mxGeometry>
        </mxCell>
        <mxCell id="69" value="" style="edgeStyle=segmentEdgeStyle;strokeColor=#990000;strokeWidth=2" parent="1" source="5" target="8" edge="1">
          <mxGeometry width="100" height="100" relative="1" as="geometry">
            <mxPoint x="282" y="2393" as="sourcePoint" />
            <mxPoint x="382" y="2293" as="targetPoint" />
            <Array as="points">
              <mxPoint x="462" y="2319" />
            </Array>
          </mxGeometry>
        </mxCell>
        <mxCell id="70" value="Existing&#xa;Models" style="text;spacingTop=-5;align=center" parent="1" vertex="1">
          <mxGeometry x="472.0000000000002" y="2374" width="30" height="20" as="geometry" />
        </mxCell>
        <mxCell id="71" value="Equipment&#xa;specification" style="text;spacingTop=-5;align=center" parent="1" vertex="1">
          <mxGeometry x="557" y="2374" width="30" height="20" as="geometry" />
        </mxCell>
        <mxCell id="72" value="" style="edgeStyle=elbowEdgeStyle;elbow=vertical;strokeColor=#990000;strokeWidth=2" parent="1" source="5" target="7" edge="1">
          <mxGeometry width="100" height="100" relative="1" as="geometry">
            <mxPoint x="442" y="2533" as="sourcePoint" />
            <mxPoint x="542" y="2433" as="targetPoint" />
            <Array as="points">
              <mxPoint x="592" y="2443" />
            </Array>
          </mxGeometry>
        </mxCell>
        <mxCell id="73" value="" style="edgeStyle=elbowEdgeStyle;elbow=vertical;strokeColor=#990000;strokeWidth=2" parent="1" source="7" target="5" edge="1">
          <mxGeometry width="100" height="100" relative="1" as="geometry">
            <mxPoint x="402" y="2533" as="sourcePoint" />
            <mxPoint x="502" y="2433" as="targetPoint" />
            <Array as="points">
              <mxPoint x="592" y="2463" />
            </Array>
          </mxGeometry>
        </mxCell>
        <mxCell id="74" value="Resources" style="text;spacingTop=-5;align=center" parent="1" vertex="1">
          <mxGeometry x="563" y="2424" width="30" height="20" as="geometry" />
        </mxCell>
        <mxCell id="75" value="System &#xa;Advantages &#xa;and Limitations" style="text;spacingTop=-5;align=center" parent="1" vertex="1">
          <mxGeometry x="572" y="2464" width="30" height="20" as="geometry" />
        </mxCell>
        <mxCell id="76" value="" style="edgeStyle=elbowEdgeStyle;elbow=horizontal;strokeColor=#990000;strokeWidth=2" parent="1" source="9" target="5" edge="1">
          <mxGeometry width="100" height="100" relative="1" as="geometry">
            <mxPoint x="362" y="2613" as="sourcePoint" />
            <mxPoint x="462" y="2513" as="targetPoint" />
            <Array as="points">
              <mxPoint x="512" y="2503" />
            </Array>
          </mxGeometry>
        </mxCell>
        <mxCell id="77" value="" style="edgeStyle=elbowEdgeStyle;elbow=horizontal;strokeColor=#990000;strokeWidth=2" parent="1" source="5" target="9" edge="1">
          <mxGeometry width="100" height="100" relative="1" as="geometry">
            <mxPoint x="342" y="2623" as="sourcePoint" />
            <mxPoint x="442" y="2523" as="targetPoint" />
            <Array as="points">
              <mxPoint x="502" y="2513" />
            </Array>
          </mxGeometry>
        </mxCell>
        <mxCell id="78" value="" style="edgeStyle=elbowEdgeStyle;elbow=horizontal;strokeColor=#990000;strokeWidth=2" parent="1" source="15" target="9" edge="1">
          <mxGeometry width="100" height="100" relative="1" as="geometry">
            <mxPoint x="372" y="2733" as="sourcePoint" />
            <mxPoint x="472" y="2633" as="targetPoint" />
          </mxGeometry>
        </mxCell>
        <mxCell id="79" value="Hardware and&#xa;Software specs" style="text;spacingTop=-5;align=center" parent="1" vertex="1">
          <mxGeometry x="567" y="2643" width="30" height="20" as="geometry" />
        </mxCell>
        <mxCell id="81" value="" style="edgeStyle=elbowEdgeStyle;elbow=horizontal;exitX=0;exitY=0.75;strokeColor=#990000;strokeWidth=2" parent="1" source="9" target="13" edge="1">
          <mxGeometry width="100" height="100" relative="1" as="geometry">
            <mxPoint x="362" y="2763" as="sourcePoint" />
            <mxPoint x="462" y="2663" as="targetPoint" />
            <Array as="points">
              <mxPoint x="412" y="2663" />
            </Array>
          </mxGeometry>
        </mxCell>
        <mxCell id="82" value="Progress&#xa;Reports" style="text;spacingTop=-5;align=center" parent="1" vertex="1">
          <mxGeometry x="423.0000000000004" y="2643" width="30" height="20" as="geometry" />
        </mxCell>
        <mxCell id="83" value="" style="edgeStyle=elbowEdgeStyle;elbow=horizontal;strokeColor=#990000;strokeWidth=2" parent="1" source="11" target="13" edge="1">
          <mxGeometry width="100" height="100" relative="1" as="geometry">
            <mxPoint x="142" y="2693" as="sourcePoint" />
            <mxPoint x="172.0000000000001" y="2683" as="targetPoint" />
          </mxGeometry>
        </mxCell>
        <mxCell id="84" value="Progress&#xa;Reports" style="text;spacingTop=-5;align=center" parent="1" vertex="1">
          <mxGeometry x="352.00000000000017" y="2643" width="30" height="20" as="geometry" />
        </mxCell>
        <mxCell id="85" value="" style="edgeStyle=elbowEdgeStyle;elbow=horizontal;strokeColor=#990000;strokeWidth=2" parent="1" source="10" target="13" edge="1">
          <mxGeometry width="100" height="100" relative="1" as="geometry">
            <mxPoint x="72.00000000000011" y="2773" as="sourcePoint" />
            <mxPoint x="172.0000000000001" y="2673" as="targetPoint" />
            <Array as="points">
              <mxPoint x="186" y="2663" />
            </Array>
          </mxGeometry>
        </mxCell>
        <mxCell id="86" value="Progress&#xa;Reports" style="text;spacingTop=-5;align=center" parent="1" vertex="1">
          <mxGeometry x="197.99999999999994" y="2683" width="30" height="20" as="geometry" />
        </mxCell>
        <mxCell id="87" value="" style="edgeStyle=elbowEdgeStyle;elbow=vertical;strokeColor=#990000;strokeWidth=2" parent="1" source="10" edge="1">
          <mxGeometry width="100" height="100" relative="1" as="geometry">
            <mxPoint x="12" y="2773" as="sourcePoint" />
            <mxPoint x="67" y="2588" as="targetPoint" />
          </mxGeometry>
        </mxCell>
        <mxCell id="88" value="" style="edgeStyle=elbowEdgeStyle;elbow=horizontal;strokeColor=#990000;strokeWidth=2" parent="1" source="5" target="11" edge="1">
          <mxGeometry width="100" height="100" relative="1" as="geometry">
            <mxPoint x="-8" y="2533" as="sourcePoint" />
            <mxPoint x="92" y="2433" as="targetPoint" />
            <Array as="points">
              <mxPoint x="332" y="2503" />
            </Array>
          </mxGeometry>
        </mxCell>
        <mxCell id="89" value="" style="edgeStyle=elbowEdgeStyle;elbow=horizontal;strokeColor=#990000;strokeWidth=2" parent="1" source="11" target="5" edge="1">
          <mxGeometry width="100" height="100" relative="1" as="geometry">
            <mxPoint x="1.9999999999998863" y="2543" as="sourcePoint" />
            <mxPoint x="101.99999999999989" y="2443" as="targetPoint" />
            <Array as="points">
              <mxPoint x="352" y="2503" />
            </Array>
          </mxGeometry>
        </mxCell>
        <mxCell id="90" value="Version&#xa;specs" style="text;spacingTop=-5;align=center" parent="1" vertex="1">
          <mxGeometry x="203" y="2494" width="30" height="20" as="geometry" />
        </mxCell>
        <mxCell id="91" value="Certificates,&#xa;system&#xa;libraries" style="text;spacingTop=-5;align=center" parent="1" vertex="1">
          <mxGeometry x="122" y="2494" width="30" height="20" as="geometry" />
        </mxCell>
        <mxCell id="92" value="" style="edgeStyle=elbowEdgeStyle;elbow=horizontal;strokeColor=#990000;strokeWidth=2" parent="1" source="5" target="10" edge="1">
          <mxGeometry width="100" height="100" relative="1" as="geometry">
            <mxPoint x="-27.999999999999886" y="2533" as="sourcePoint" />
            <mxPoint x="72.00000000000011" y="2433" as="targetPoint" />
            <Array as="points">
              <mxPoint x="192" y="2503" />
            </Array>
          </mxGeometry>
        </mxCell>
        <mxCell id="93" value="" style="edgeStyle=elbowEdgeStyle;elbow=horizontal;strokeColor=#990000;strokeWidth=2" parent="1" source="10" target="5" edge="1">
          <mxGeometry width="100" height="100" relative="1" as="geometry">
            <mxPoint x="-18" y="2543" as="sourcePoint" />
            <mxPoint x="82" y="2443" as="targetPoint" />
            <Array as="points">
              <mxPoint x="172" y="2503" />
            </Array>
          </mxGeometry>
        </mxCell>
        <mxCell id="94" value="System&#xa;specs" style="text;spacingTop=-5;align=center" parent="1" vertex="1">
          <mxGeometry x="81.99999999999994" y="2598" width="30" height="20" as="geometry" />
        </mxCell>
        <mxCell id="95" value="Design&#xa;specs" style="text;spacingTop=-5;align=center" parent="1" vertex="1">
          <mxGeometry x="365.49999999999994" y="2494" width="30" height="20" as="geometry" />
        </mxCell>
        <mxCell id="96" value="System&#xa;version" style="text;spacingTop=-5;align=center" parent="1" vertex="1">
          <mxGeometry x="292.9999999999998" y="2494" width="30" height="20" as="geometry" />
        </mxCell>
        <mxCell id="5CDY74g-djcmqqnZIwvg-99" value="" style="shape=umlLifeline;participant=umlActor;perimeter=lifelinePerimeter;whiteSpace=wrap;html=1;container=1;collapsible=0;recursiveResize=0;verticalAlign=top;spacingTop=36;outlineConnect=0;strokeWidth=2;" vertex="1" parent="1">
          <mxGeometry x="105" y="30" width="20" height="600" as="geometry" />
        </mxCell>
        <mxCell id="5CDY74g-djcmqqnZIwvg-100" value=":Transfer Layer" style="shape=umlLifeline;perimeter=lifelinePerimeter;whiteSpace=wrap;html=1;container=1;collapsible=0;recursiveResize=0;outlineConnect=0;strokeWidth=2;" vertex="1" parent="1">
          <mxGeometry x="338.5" y="30" width="100" height="600" as="geometry" />
        </mxCell>
        <mxCell id="5CDY74g-djcmqqnZIwvg-102" value="" style="html=1;points=[];perimeter=orthogonalPerimeter;strokeWidth=2;shadow=1;sketch=1;" vertex="1" parent="5CDY74g-djcmqqnZIwvg-100">
          <mxGeometry x="41.5" y="110" width="10" height="80" as="geometry" />
        </mxCell>
        <mxCell id="5CDY74g-djcmqqnZIwvg-108" value="" style="html=1;points=[];perimeter=orthogonalPerimeter;strokeWidth=2;shadow=1;sketch=1;" vertex="1" parent="5CDY74g-djcmqqnZIwvg-100">
          <mxGeometry x="51.5" y="270" width="10" height="60" as="geometry" />
        </mxCell>
        <mxCell id="5CDY74g-djcmqqnZIwvg-114" value="" style="html=1;points=[];perimeter=orthogonalPerimeter;shadow=1;glass=0;sketch=1;strokeWidth=2;fillColor=#FFFFCC;" vertex="1" parent="5CDY74g-djcmqqnZIwvg-100">
          <mxGeometry x="51.5" y="440" width="10" height="50" as="geometry" />
        </mxCell>
        <mxCell id="5CDY74g-djcmqqnZIwvg-101" value=":Solution" style="shape=umlLifeline;perimeter=lifelinePerimeter;whiteSpace=wrap;html=1;container=1;collapsible=0;recursiveResize=0;outlineConnect=0;strokeWidth=2;" vertex="1" parent="1">
          <mxGeometry x="640" y="30" width="100" height="600" as="geometry" />
        </mxCell>
        <mxCell id="5CDY74g-djcmqqnZIwvg-105" value="" style="html=1;points=[];perimeter=orthogonalPerimeter;strokeWidth=2;shadow=1;sketch=1;" vertex="1" parent="5CDY74g-djcmqqnZIwvg-101">
          <mxGeometry x="41" y="120" width="10" height="50" as="geometry" />
        </mxCell>
        <mxCell id="5CDY74g-djcmqqnZIwvg-119" style="edgeStyle=orthogonalEdgeStyle;rounded=0;orthogonalLoop=1;jettySize=auto;html=1;strokeWidth=2;" edge="1" parent="5CDY74g-djcmqqnZIwvg-101" source="5CDY74g-djcmqqnZIwvg-105">
          <mxGeometry relative="1" as="geometry">
            <mxPoint x="46" y="170" as="targetPoint" />
            <Array as="points">
              <mxPoint x="46" y="100" />
              <mxPoint x="120" y="100" />
              <mxPoint x="120" y="190" />
              <mxPoint x="46" y="190" />
            </Array>
          </mxGeometry>
        </mxCell>
        <mxCell id="5CDY74g-djcmqqnZIwvg-120" value="process" style="edgeLabel;html=1;align=center;verticalAlign=middle;resizable=0;points=[];" vertex="1" connectable="0" parent="5CDY74g-djcmqqnZIwvg-119">
          <mxGeometry x="0.1223" y="-2" relative="1" as="geometry">
            <mxPoint x="8" y="-17" as="offset" />
          </mxGeometry>
        </mxCell>
        <mxCell id="5CDY74g-djcmqqnZIwvg-103" value="trigger /rest API" style="html=1;verticalAlign=bottom;endArrow=block;entryX=0;entryY=0;" edge="1" target="5CDY74g-djcmqqnZIwvg-102" parent="1">
          <mxGeometry relative="1" as="geometry">
            <mxPoint x="120" y="140.0000000000001" as="sourcePoint" />
          </mxGeometry>
        </mxCell>
        <mxCell id="5CDY74g-djcmqqnZIwvg-104" value="return" style="html=1;verticalAlign=bottom;endArrow=open;dashed=1;endSize=8;exitX=0;exitY=0.95;" edge="1" source="5CDY74g-djcmqqnZIwvg-102" parent="1">
          <mxGeometry relative="1" as="geometry">
            <mxPoint x="120" y="216" as="targetPoint" />
          </mxGeometry>
        </mxCell>
        <mxCell id="5CDY74g-djcmqqnZIwvg-106" value="dispatch" style="html=1;verticalAlign=bottom;endArrow=block;entryX=0;entryY=0;" edge="1" target="5CDY74g-djcmqqnZIwvg-105" parent="1">
          <mxGeometry relative="1" as="geometry">
            <mxPoint x="393.5" y="150" as="sourcePoint" />
          </mxGeometry>
        </mxCell>
        <mxCell id="5CDY74g-djcmqqnZIwvg-107" value="return" style="html=1;verticalAlign=bottom;endArrow=open;dashed=1;endSize=8;exitX=0;exitY=0.95;" edge="1" source="5CDY74g-djcmqqnZIwvg-105" parent="1">
          <mxGeometry relative="1" as="geometry">
            <mxPoint x="393.5" y="197.5" as="targetPoint" />
          </mxGeometry>
        </mxCell>
        <mxCell id="5CDY74g-djcmqqnZIwvg-109" value="callback" style="html=1;verticalAlign=bottom;endArrow=block;entryX=1;entryY=0;" edge="1" target="5CDY74g-djcmqqnZIwvg-108" parent="1" source="5CDY74g-djcmqqnZIwvg-101">
          <mxGeometry relative="1" as="geometry">
            <mxPoint x="460" y="300" as="sourcePoint" />
          </mxGeometry>
        </mxCell>
        <mxCell id="5CDY74g-djcmqqnZIwvg-110" value="return" style="html=1;verticalAlign=bottom;endArrow=open;dashed=1;endSize=8;exitX=1;exitY=0.95;" edge="1" source="5CDY74g-djcmqqnZIwvg-108" parent="1" target="5CDY74g-djcmqqnZIwvg-101">
          <mxGeometry relative="1" as="geometry">
            <mxPoint x="460" y="357" as="targetPoint" />
          </mxGeometry>
        </mxCell>
        <mxCell id="5CDY74g-djcmqqnZIwvg-111" value="Async&amp;nbsp; Trigger State" style="html=1;align=center;verticalAlign=top;rounded=1;absoluteArcSize=1;arcSize=10;strokeWidth=2;sketch=1;shadow=1;glass=0;" vertex="1" parent="1">
          <mxGeometry x="85" y="90" width="665" height="30" as="geometry" />
        </mxCell>
        <mxCell id="5CDY74g-djcmqqnZIwvg-112" value="Async&amp;nbsp; Process Callback" style="html=1;align=center;verticalAlign=top;rounded=1;absoluteArcSize=1;arcSize=10;strokeWidth=2;sketch=1;shadow=1;" vertex="1" parent="1">
          <mxGeometry x="85" y="250" width="665" height="30" as="geometry" />
        </mxCell>
        <mxCell id="5CDY74g-djcmqqnZIwvg-113" value="User Status&amp;nbsp; Check" style="html=1;align=center;verticalAlign=top;rounded=1;absoluteArcSize=1;arcSize=10;strokeWidth=2;sketch=1;shadow=1;" vertex="1" parent="1">
          <mxGeometry x="86" y="400" width="665" height="30" as="geometry" />
        </mxCell>
        <mxCell id="5CDY74g-djcmqqnZIwvg-115" value="check&amp;nbsp; status /rest API" style="html=1;verticalAlign=bottom;endArrow=block;entryX=0;entryY=0;" edge="1" target="5CDY74g-djcmqqnZIwvg-114" parent="1" source="5CDY74g-djcmqqnZIwvg-99">
          <mxGeometry relative="1" as="geometry">
            <mxPoint x="320" y="490" as="sourcePoint" />
          </mxGeometry>
        </mxCell>
        <mxCell id="5CDY74g-djcmqqnZIwvg-116" value="return" style="html=1;verticalAlign=bottom;endArrow=open;dashed=1;endSize=8;exitX=0;exitY=0.95;" edge="1" source="5CDY74g-djcmqqnZIwvg-114" parent="1" target="5CDY74g-djcmqqnZIwvg-99">
          <mxGeometry relative="1" as="geometry">
            <mxPoint x="320" y="566" as="targetPoint" />
          </mxGeometry>
        </mxCell>
        <mxCell id="5CDY74g-djcmqqnZIwvg-121" value="Normal Algorithm Call" style="text;align=center;fontStyle=1;verticalAlign=middle;spacingLeft=3;spacingRight=3;strokeColor=none;rotatable=0;points=[[0,0.5],[1,0.5]];portConstraint=eastwest;shadow=1;glass=0;sketch=1;fillColor=#FFFFCC;" vertex="1" parent="1">
          <mxGeometry x="6" y="600" width="144" height="30" as="geometry" />
        </mxCell>
        <mxCell id="5CDY74g-djcmqqnZIwvg-122" value="" style="shape=umlLifeline;participant=umlActor;perimeter=lifelinePerimeter;whiteSpace=wrap;html=1;container=1;collapsible=0;recursiveResize=0;verticalAlign=top;spacingTop=36;outlineConnect=0;strokeWidth=2;" vertex="1" parent="1">
          <mxGeometry x="107" y="787" width="20" height="715" as="geometry" />
        </mxCell>
        <mxCell id="5CDY74g-djcmqqnZIwvg-123" value=":Transfer Layer" style="shape=umlLifeline;perimeter=lifelinePerimeter;whiteSpace=wrap;html=1;container=1;collapsible=0;recursiveResize=0;outlineConnect=0;strokeWidth=2;" vertex="1" parent="1">
          <mxGeometry x="264" y="787" width="100" height="718" as="geometry" />
        </mxCell>
        <mxCell id="5CDY74g-djcmqqnZIwvg-124" value="" style="html=1;points=[];perimeter=orthogonalPerimeter;strokeWidth=2;shadow=1;sketch=1;" vertex="1" parent="5CDY74g-djcmqqnZIwvg-123">
          <mxGeometry x="41.5" y="134" width="10" height="56" as="geometry" />
        </mxCell>
        <mxCell id="5CDY74g-djcmqqnZIwvg-126" value="" style="html=1;points=[];perimeter=orthogonalPerimeter;shadow=1;glass=0;sketch=1;strokeWidth=2;fillColor=#FFFFCC;" vertex="1" parent="5CDY74g-djcmqqnZIwvg-123">
          <mxGeometry x="37.5" y="607" width="10" height="50" as="geometry" />
        </mxCell>
        <mxCell id="5CDY74g-djcmqqnZIwvg-159" value="" style="html=1;points=[];perimeter=orthogonalPerimeter;shadow=1;glass=0;sketch=1;strokeWidth=2;fillColor=#FFFFCC;" vertex="1" parent="5CDY74g-djcmqqnZIwvg-123">
          <mxGeometry x="49" y="416" width="10" height="60" as="geometry" />
        </mxCell>
        <mxCell id="5CDY74g-djcmqqnZIwvg-127" value=":Solutions" style="shape=umlLifeline;perimeter=lifelinePerimeter;whiteSpace=wrap;html=1;container=1;collapsible=0;recursiveResize=0;outlineConnect=0;strokeWidth=2;" vertex="1" parent="1">
          <mxGeometry x="683" y="787" width="100" height="746" as="geometry" />
        </mxCell>
        <mxCell id="5CDY74g-djcmqqnZIwvg-131" value="trigger /rest API" style="html=1;verticalAlign=bottom;endArrow=block;entryX=0;entryY=0;" edge="1" parent="1" target="5CDY74g-djcmqqnZIwvg-124" source="5CDY74g-djcmqqnZIwvg-122">
          <mxGeometry relative="1" as="geometry">
            <mxPoint x="122" y="897" as="sourcePoint" />
          </mxGeometry>
        </mxCell>
        <mxCell id="5CDY74g-djcmqqnZIwvg-132" value="return" style="html=1;verticalAlign=bottom;endArrow=open;dashed=1;endSize=8;exitX=0;exitY=0.95;" edge="1" parent="1" source="5CDY74g-djcmqqnZIwvg-124">
          <mxGeometry relative="1" as="geometry">
            <mxPoint x="122" y="973" as="targetPoint" />
          </mxGeometry>
        </mxCell>
        <mxCell id="5CDY74g-djcmqqnZIwvg-137" value="Async&amp;nbsp; Trigger State" style="html=1;align=center;verticalAlign=top;rounded=1;absoluteArcSize=1;arcSize=10;strokeWidth=2;sketch=1;shadow=1;glass=0;" vertex="1" parent="1">
          <mxGeometry x="87" y="847" width="665" height="30" as="geometry" />
        </mxCell>
        <mxCell id="5CDY74g-djcmqqnZIwvg-138" value="Async&amp;nbsp; Process Callback" style="html=1;align=center;verticalAlign=top;rounded=1;absoluteArcSize=1;arcSize=10;strokeWidth=2;sketch=1;shadow=1;" vertex="1" parent="1">
          <mxGeometry x="87" y="1007" width="665" height="30" as="geometry" />
        </mxCell>
        <mxCell id="5CDY74g-djcmqqnZIwvg-139" value="User Status&amp;nbsp; Check" style="html=1;align=center;verticalAlign=top;rounded=1;absoluteArcSize=1;arcSize=10;strokeWidth=2;sketch=1;shadow=1;" vertex="1" parent="1">
          <mxGeometry x="81" y="1326" width="665" height="30" as="geometry" />
        </mxCell>
        <mxCell id="5CDY74g-djcmqqnZIwvg-140" value="check&amp;nbsp; status /rest API" style="html=1;verticalAlign=bottom;endArrow=block;entryX=0;entryY=0;" edge="1" parent="1" target="5CDY74g-djcmqqnZIwvg-126">
          <mxGeometry relative="1" as="geometry">
            <mxPoint x="118" y="1394" as="sourcePoint" />
          </mxGeometry>
        </mxCell>
        <mxCell id="5CDY74g-djcmqqnZIwvg-141" value="return" style="html=1;verticalAlign=bottom;endArrow=open;dashed=1;endSize=8;exitX=0;exitY=0.95;" edge="1" parent="1" source="5CDY74g-djcmqqnZIwvg-126">
          <mxGeometry relative="1" as="geometry">
            <mxPoint x="117" y="1442" as="targetPoint" />
          </mxGeometry>
        </mxCell>
        <mxCell id="5CDY74g-djcmqqnZIwvg-143" value=":Zookeeper" style="shape=umlLifeline;perimeter=lifelinePerimeter;whiteSpace=wrap;html=1;container=1;collapsible=0;recursiveResize=0;outlineConnect=0;strokeWidth=2;" vertex="1" parent="1">
          <mxGeometry x="472" y="787" width="100" height="719" as="geometry" />
        </mxCell>
        <mxCell id="5CDY74g-djcmqqnZIwvg-147" value="" style="html=1;points=[];perimeter=orthogonalPerimeter;shadow=1;glass=0;sketch=1;strokeWidth=2;fillColor=#FFFFCC;" vertex="1" parent="5CDY74g-djcmqqnZIwvg-143">
          <mxGeometry x="39" y="139" width="10" height="43" as="geometry" />
        </mxCell>
        <mxCell id="5CDY74g-djcmqqnZIwvg-156" value="" style="html=1;points=[];perimeter=orthogonalPerimeter;shadow=1;glass=0;sketch=1;strokeWidth=2;fillColor=#FFFFCC;" vertex="1" parent="5CDY74g-djcmqqnZIwvg-143">
          <mxGeometry x="39" y="612" width="10" height="40" as="geometry" />
        </mxCell>
        <mxCell id="5CDY74g-djcmqqnZIwvg-149" value="return" style="html=1;verticalAlign=bottom;endArrow=open;dashed=1;endSize=8;exitX=0;exitY=0.95;strokeWidth=2;" edge="1" source="5CDY74g-djcmqqnZIwvg-147" parent="1" target="5CDY74g-djcmqqnZIwvg-123">
          <mxGeometry relative="1" as="geometry">
            <mxPoint x="435" y="967" as="targetPoint" />
          </mxGeometry>
        </mxCell>
        <mxCell id="5CDY74g-djcmqqnZIwvg-148" value="dispatch" style="html=1;verticalAlign=bottom;endArrow=block;entryX=0;entryY=0;strokeWidth=2;" edge="1" target="5CDY74g-djcmqqnZIwvg-147" parent="1" source="5CDY74g-djcmqqnZIwvg-123">
          <mxGeometry relative="1" as="geometry">
            <mxPoint x="441" y="921" as="sourcePoint" />
          </mxGeometry>
        </mxCell>
        <mxCell id="5CDY74g-djcmqqnZIwvg-153" value="" style="html=1;points=[];perimeter=orthogonalPerimeter;shadow=1;glass=0;sketch=1;strokeWidth=2;fillColor=#FFFFCC;" vertex="1" parent="1">
          <mxGeometry x="723" y="1085" width="10" height="53" as="geometry" />
        </mxCell>
        <mxCell id="5CDY74g-djcmqqnZIwvg-154" value="watch" style="html=1;verticalAlign=bottom;endArrow=block;entryX=0;entryY=0;strokeWidth=2;" edge="1" target="5CDY74g-djcmqqnZIwvg-153" parent="1" source="5CDY74g-djcmqqnZIwvg-143">
          <mxGeometry relative="1" as="geometry">
            <mxPoint x="653" y="1085" as="sourcePoint" />
          </mxGeometry>
        </mxCell>
        <mxCell id="5CDY74g-djcmqqnZIwvg-155" value="return" style="html=1;verticalAlign=bottom;endArrow=open;dashed=1;endSize=8;exitX=0;exitY=0.95;strokeWidth=2;" edge="1" source="5CDY74g-djcmqqnZIwvg-153" parent="1" target="5CDY74g-djcmqqnZIwvg-143">
          <mxGeometry relative="1" as="geometry">
            <mxPoint x="653" y="1161" as="targetPoint" />
          </mxGeometry>
        </mxCell>
        <mxCell id="5CDY74g-djcmqqnZIwvg-158" value="return" style="html=1;verticalAlign=bottom;endArrow=open;dashed=1;endSize=8;exitX=0;exitY=0.95;strokeWidth=2;" edge="1" source="5CDY74g-djcmqqnZIwvg-156" parent="1" target="5CDY74g-djcmqqnZIwvg-126">
          <mxGeometry relative="1" as="geometry">
            <mxPoint x="432" y="1420" as="targetPoint" />
          </mxGeometry>
        </mxCell>
        <mxCell id="5CDY74g-djcmqqnZIwvg-157" value="dispatch" style="html=1;verticalAlign=bottom;endArrow=block;strokeWidth=2;exitX=0.5;exitY=0.859;exitDx=0;exitDy=0;exitPerimeter=0;" edge="1" target="5CDY74g-djcmqqnZIwvg-156" parent="1" source="5CDY74g-djcmqqnZIwvg-123">
          <mxGeometry relative="1" as="geometry">
            <mxPoint x="439" y="1382" as="sourcePoint" />
          </mxGeometry>
        </mxCell>
        <mxCell id="5CDY74g-djcmqqnZIwvg-160" value="logic callback" style="html=1;verticalAlign=bottom;endArrow=block;entryX=1;entryY=0;strokeWidth=2;" edge="1" target="5CDY74g-djcmqqnZIwvg-159" parent="1" source="5CDY74g-djcmqqnZIwvg-127">
          <mxGeometry relative="1" as="geometry">
            <mxPoint x="383" y="1203" as="sourcePoint" />
          </mxGeometry>
        </mxCell>
        <mxCell id="5CDY74g-djcmqqnZIwvg-161" value="return" style="html=1;verticalAlign=bottom;endArrow=open;dashed=1;endSize=8;exitX=1;exitY=0.95;strokeWidth=2;" edge="1" source="5CDY74g-djcmqqnZIwvg-159" parent="1" target="5CDY74g-djcmqqnZIwvg-127">
          <mxGeometry relative="1" as="geometry">
            <mxPoint x="383" y="1260" as="targetPoint" />
          </mxGeometry>
        </mxCell>
      </root>
    </mxGraphModel>
  </diagram>
</mxfile>
